<?xml version="1.0" encoding="utf-8"?>
<!-- Generator: Adobe Illustrator 27.0.0, SVG Export Plug-In . SVG Version: 6.00 Build 0)  -->
<svg version="1.1" id="Laag_1" xmlns="http://www.w3.org/2000/svg" xmlns:xlink="http://www.w3.org/1999/xlink" x="0px" y="0px"
	 viewBox="0 0 40 40" style="enable-background:new 0 0 40 40;" xml:space="preserve">
<g>
	<path d="M37.5,29.1c-0.1,0.5-0.2,1.1-0.4,1.6c-1,2.9-3.6,4.7-6.6,4.8c-1.6,0-3-0.5-4.2-1.4c-0.2-0.2-0.4-0.2-0.7-0.2
		c-6.1,0-12.1,0-18.2,0c-2.1,0-3.6-0.9-4.5-2.8c-0.3-0.6-0.4-1.3-0.4-2c0-6.6,0-13.3,0-19.9c0-2.7,2-4.7,4.8-4.7
		c6.4,0,12.8,0,19.2,0c2.8,0,4.8,2.1,4.8,4.8c0,3.9,0,7.8,0,11.7c0,0.1,0,0.3,0,0.3c0.9,0.3,1.7,0.5,2.5,0.9
		c2.1,1.1,3.3,2.9,3.7,5.2c0,0.1,0,0.2,0.1,0.3C37.5,28.2,37.5,28.6,37.5,29.1z M4.3,22.4c0,0,0.1,0,0.1,0.1
		c0.1-0.1,0.1-0.2,0.2-0.3c1.6-1.6,3.2-3.2,4.8-4.9c0.5-0.6,1-0.6,1.6,0c1.5,1.6,3.1,3.1,4.6,4.7c0.1,0.1,0.1,0.2,0.3,0.4
		c0.1-0.2,0.2-0.3,0.3-0.4c2.3-2.3,4.6-4.7,7-7c0.6-0.6,1-0.6,1.6,0c1.5,1.5,3,3,4.4,4.4c0.1,0.1,0.2,0.2,0.3,0.3c0-0.2,0-0.3,0-0.4
		c0-3.3,0-6.5,0-9.8c0-1.9-1.3-3.1-3.1-3.1c-6.3,0-12.6,0-19,0c-0.3,0-0.6,0-0.9,0.1C5.1,6.8,4.3,7.9,4.3,9.4c0,4.3,0,8.5,0,12.8
		C4.3,22.2,4.3,22.3,4.3,22.4z M24.3,32.2c-1.1-2.1-1.4-4.3-0.4-6.5c0.9-2.2,2.6-3.5,5-4.2c-1.7-1.6-3.3-3.2-5-4.9
		c0,0-0.1,0.2-0.2,0.2c-2.3,2.3-4.7,4.7-7,7c-0.6,0.6-1.1,0.6-1.6,0c-1.5-1.5-3.1-3.1-4.6-4.6c-0.1-0.1-0.1-0.2-0.2-0.3
		c-0.1,0.1-0.2,0.1-0.2,0.2c-1.9,1.9-3.8,3.8-5.6,5.7c-0.1,0.1-0.1,0.3-0.1,0.4c0,1.3,0,2.5,0,3.8c0,0.3,0,0.6,0.1,0.8
		c0.5,1.7,1.7,2.2,3.2,2.2c5.5,0,10.9,0,16.4,0C24,32.2,24.1,32.2,24.3,32.2z M30.4,33.7c2.9,0,5.3-2.3,5.3-5.2
		c0-2.9-2.4-5.3-5.3-5.3c-2.9,0-5.2,2.3-5.3,5.3C25.1,31.5,27.7,33.7,30.4,33.7z"/>
	<path d="M15.6,17c-1.4-0.1-2.4-1.2-2.3-2.6c0.1-1.3,1.3-2.3,2.5-2.2c1.4,0.1,2.4,1.2,2.3,2.6C18,16,16.9,17,15.6,17z"/>
	<path d="M31.3,27.7c0,0.3,0,0.6,0,0.8c0,0.9,0,1.8,0,2.7c0,0.5-0.4,0.9-0.9,0.9c-0.5,0-0.9-0.4-0.9-0.9c0-1.1,0-2.1,0-3.2
		c0-0.1,0-0.2,0-0.3c0,0-0.1,0-0.1-0.1c-0.1,0.1-0.3,0.3-0.4,0.4c-0.4,0.4-1,0.4-1.3,0c-0.3-0.4-0.3-0.9,0.1-1.3
		c0.6-0.6,1.3-1.3,1.9-1.9c0.4-0.4,0.9-0.5,1.4,0c0.7,0.7,1.4,1.4,2.1,2.1c0.3,0.4,0.3,1,0,1.3c-0.3,0.3-0.9,0.3-1.3,0
		C31.6,28,31.5,27.9,31.3,27.7C31.3,27.7,31.3,27.7,31.3,27.7z"/>
</g>
</svg>
