<?xml version="1.0" encoding="utf-8"?>
<!-- Generator: Adobe Illustrator 27.0.0, SVG Export Plug-In . SVG Version: 6.00 Build 0)  -->
<svg version="1.1" id="Laag_1" xmlns="http://www.w3.org/2000/svg" xmlns:xlink="http://www.w3.org/1999/xlink" x="0px" y="0px"
	 viewBox="0 0 40 40" style="enable-background:new 0 0 40 40;" xml:space="preserve">
<path d="M34.8,37.5c0-3.5-1.1-6.6-3.4-9.3c-2.5-3-5.7-4.8-9.6-5.3c-4.5-0.5-8.4,0.7-11.8,3.8c-2.8,2.5-4.3,5.6-4.7,9.3
	c-0.1,0.5-0.1,1-0.1,1.6c-0.9,0-1.8,0-2.7,0C2.8,29.4,6.9,24,14.2,20.9c-2.7-2-4.2-4.8-4.3-8.2c0-2.8,1-5.3,3-7.2
	c4.2-4.1,10.6-3.8,14.4,0.2C31.5,10,31,17.2,25.8,21c0.1,0.1,0.3,0.1,0.4,0.2c5.3,2.1,8.9,5.9,10.6,11.4c0.4,1.2,0.6,2.4,0.7,3.7
	c0,0.1,0,0.2,0.1,0.3c0,0.3,0,0.7,0,1C36.6,37.5,35.7,37.5,34.8,37.5z M20,5.2c-4.1,0-7.4,3.3-7.4,7.4c0,4.1,3.3,7.4,7.4,7.4
	c4.1,0,7.4-3.3,7.4-7.4C27.4,8.6,24.1,5.2,20,5.2z"/>
</svg>
