<?xml version="1.0" encoding="utf-8"?>
<!-- Generator: Adobe Illustrator 27.0.0, SVG Export Plug-In . SVG Version: 6.00 Build 0)  -->
<svg version="1.1" id="Laag_1" xmlns="http://www.w3.org/2000/svg" xmlns:xlink="http://www.w3.org/1999/xlink" x="0px" y="0px"
	 viewBox="0 0 40 40" style="enable-background:new 0 0 40 40;" xml:space="preserve">
<path d="M2,15.9c0.1-0.6,0.2-1.2,0.3-1.8c0.5-2.7,1.7-5,3.5-7c2.1-2.4,4.8-3.9,7.9-4.5c3.7-0.7,7.1-0.2,10.3,1.8
	c3.6,2.2,5.9,5.4,6.8,9.5c0.8,3.5,0.2,6.9-1.6,10.1c-0.3,0.6-0.3,0.6,0.2,1.1c2.5,2.5,5.1,5.1,7.6,7.6c0.8,0.8,1.2,1.8,0.9,2.9
	c-0.6,2.1-3.3,3-5,1.2c-1.4-1.5-2.9-2.9-4.4-4.4c-1.2-1.2-2.3-2.3-3.5-3.5c-0.1-0.1-0.2-0.1-0.2-0.2c-0.9,0.5-1.8,1-2.7,1.4
	c-3.9,1.6-7.8,1.6-11.7-0.2c-2.9-1.3-5.1-3.4-6.7-6.2c-1-1.8-1.6-3.7-1.8-5.7C2,18,2,17.9,2,17.8C2,17.1,2,16.5,2,15.9z M6.7,16.8
	c0,5.4,4.4,9.8,9.9,9.8c5.4,0,9.8-4.4,9.8-9.8c0-5.4-4.4-9.9-9.8-9.8C11.1,7,6.7,11.4,6.7,16.8z"/>
</svg>
